<svg id="wave" style="transform:rotate(0deg); transition: 0.3s" viewBox="0 0 1440 360" version="1.1" xmlns="http://www.w3.org/2000/svg"><defs><linearGradient id="sw-gradient-0" x1="0" x2="0" y1="1" y2="0"><stop stop-color="#D29D46" offset="0%"></stop><stop stop-color="#D29D46" offset="100%"></stop></linearGradient></defs><path style="transform:translate(0, 0px); opacity:1" fill="url(#sw-gradient-0)" d="M0,252L48,240C96,228,192,204,288,186C384,168,480,156,576,162C672,168,768,192,864,180C960,168,1056,120,1152,114C1248,108,1344,144,1440,138C1536,132,1632,84,1728,84C1824,84,1920,132,2016,132C2112,132,2208,84,2304,66C2400,48,2496,60,2592,90C2688,120,2784,168,2880,180C2976,192,3072,168,3168,180C3264,192,3360,240,3456,270C3552,300,3648,312,3744,312C3840,312,3936,300,4032,276C4128,252,4224,216,4320,216C4416,216,4512,252,4608,270C4704,288,4800,288,4896,270C4992,252,5088,216,5184,174C5280,132,5376,84,5472,84C5568,84,5664,132,5760,156C5856,180,5952,180,6048,180C6144,180,6240,180,6336,186C6432,192,6528,204,6624,192C6720,180,6816,144,6864,126L6912,108L6912,360L6864,360C6816,360,6720,360,6624,360C6528,360,6432,360,6336,360C6240,360,6144,360,6048,360C5952,360,5856,360,5760,360C5664,360,5568,360,5472,360C5376,360,5280,360,5184,360C5088,360,4992,360,4896,360C4800,360,4704,360,4608,360C4512,360,4416,360,4320,360C4224,360,4128,360,4032,360C3936,360,3840,360,3744,360C3648,360,3552,360,3456,360C3360,360,3264,360,3168,360C3072,360,2976,360,2880,360C2784,360,2688,360,2592,360C2496,360,2400,360,2304,360C2208,360,2112,360,2016,360C1920,360,1824,360,1728,360C1632,360,1536,360,1440,360C1344,360,1248,360,1152,360C1056,360,960,360,864,360C768,360,672,360,576,360C480,360,384,360,288,360C192,360,96,360,48,360L0,360Z"></path></svg>